<svg xmlns="http://www.w3.org/2000/svg" xmlns:se="http://svg-edit.googlecode.com" xmlns:xlink="http://www.w3.org/1999/xlink" xmlns:dc="http://purl.org/dc/elements/1.1/" xmlns:cc="http://creativecommons.org/ns#" xmlns:rdf="http://www.w3.org/1999/02/22-rdf-syntax-ns#" xmlns:inkscape="http://www.inkscape.org/namespaces/inkscape" width="24.552846908569336" height="24.894309997558594">                                    <title>my vector image</title>                                    <!-- Created with Vector Paint - http://www.vectorpaint.yaks.com/ https://chrome.google.com/webstore/detail/hnbpdiengicdefcjecjbnjnoifekhgdo -->                                    <rect id="backgroundrect" width="100%" height="100%" x="0" y="0" fill="#FFFFFF" stroke="none" class=""/>                                <g class="currentLayer"><title>Layer 1</title><path fill="#b6b6b6" stroke="#000000" stroke-dashoffset="" fill-rule="nonzero" marker-start="" marker-mid="" marker-end="" id="svg_7" d="M299.1859107345675,46.654399548529376 C299.17655383008383,46.702430107156864 299.20305558453407,46.74813634327349 299.22374263821223,46.78962846564077 C299.2678161197853,46.86281341819163 299.3189497314066,46.93325155449045 299.3831195846661,46.99013020430896 C299.4269044015211,47.026171651636375 299.46635550484217,47.06767881248799 299.515933746049,47.09623514085153 C299.5807493774511,47.13990824806853 299.65034454938217,47.17567168574745 299.7225090767066,47.20541352547936 C299.7761681421367,47.22879890809884 299.83244086916756,47.24538949213459 299.88993532131633,47.2562706447881 C299.9066586216619,47.26060563962777 299.95341475303974,47.27284882038834 299.92432796405876,47.244123494528296 C299.9002008402326,47.23393600039387 299.8745338565365,47.22650274059786 299.8502740164002,47.215877613082206 C299.73250282391075,47.167522412017384 299.60735707566334,47.125036266067475 299.5123481128139,47.036816369643965 C299.4966049439979,47.01590869533169 299.5425550665654,47.048109394687614 299.5504726936871,47.05693971618975 C299.629735048426,47.11337048218038 299.72028590991965,47.15120838773146 299.80958824002875,47.18858303378456 C299.8550173094611,47.20363446604025 299.9046759357503,47.235718330534766 299.95293965832207,47.21295060476692 C299.99463274339456,47.19701969092687 299.94296900834166,47.19457765687171 299.9245475056986,47.188509898195996 C299.8426674431302,47.16522752582224 299.75982262470217,47.142847293915025 299.6846771730618,47.1016502090765 C299.64176799387315,47.085951751090576 299.60570402253825,47.05705139210921 299.56715677933056,47.03323077012729 C299.5255121478498,47.004464509917604 299.48739805345343,46.97085363232993 299.44685571589855,46.940517030658654 C299.42032378332414,46.92039911280333 299.3939624330185,46.900093011582584 299.37199683842465,46.87487829512907 C299.3348516135538,46.837707511578735 299.2988272278254,46.79947992045962 299.2651601413738,46.75911413336211 C299.2431652790569,46.73428245991737 299.2184212739065,46.711547845789916 299.202960700465,46.681767297134215 L299.1859107345675,46.654399548529376 zM300.0506294838914,47.123529720149186 C300.0455527478452,47.12336972551214 300.04031160002864,47.124481056016215 300.03592107069625,47.12740806433155 C300.00313832130377,47.1437994727464 300.0101631817225,47.17424053456222 299.99143015316827,47.19765687083326 C299.977380364893,47.21638986566928 299.9609890239152,47.225756447383716 299.9375727887997,47.23278127408418 C299.9422560290792,47.24214772092432 299.9516224759193,47.25619750919953 299.9516224759193,47.26790567733506 C299.9516224759193,47.29366353259009 299.92118141410367,47.317079767705415 299.89776511155094,47.31473814756577 C299.88839856355486,47.31239652742612 299.867323982298,47.300688359290525 299.86029908816033,47.31473814756577 C299.8579574680208,47.31942148900085 299.8579574680208,47.32410469556163 299.86029908816033,47.32644631570132 C299.86029908816033,47.33581286369715 299.8720072225771,47.34049610397652 299.88137370313615,47.34517931053726 C299.9071315921099,47.352204137237756 299.93523113494143,47.34283769039766 299.9563057836358,47.32878790212237 C299.9726971246136,47.31942145528226 299.9844052590303,47.3030300468674 299.9890885330285,47.28429695087563 L299.99377177330786,47.25385588905985 C299.9961133934473,47.2444894422197 300.00547994144347,47.24214772092432 300.0171880758605,47.22575641366511 C300.0312377966983,47.20702341882914 300.04528758497355,47.174240500843666 300.0640206135282,47.16019081372414 C300.07104544022866,47.15550757344476 300.07807030064737,47.15316588586795 300.0874368486436,47.15082426572826 C300.08275360836416,47.14379943902784 300.07807030064737,47.139116198748475 300.0733870603682,47.13209137204804 C300.06870382008896,47.12974965075261 300.0640206135282,47.12506644419186 300.05933737324875,47.12506644419186 C300.0567030084436,47.124188378787686 300.05367535018263,47.12362571693141 300.0506294838914,47.123529720149186 zM300.14978266188507,47.211926133311316 C300.1409792815238,47.21182838316323 300.131781393839,47.21375550086394 300.12256125189424,47.21638986566928 L300.1412942467303,47.228098033804805 C300.1366109052953,47.237464480644945 300.1249029394713,47.25619750919953 300.12724445845504,47.26790567733506 C300.1295861797505,47.29132191245041 300.162368861706,47.29132191245041 300.1764186499814,47.277272124175205 C300.1928100583962,47.25853912933921 300.1928100583962,47.230439653944494 300.1693938232808,47.21638986566928 C300.1632470282658,47.21331651873969 300.156629690541,47.21200216869729 300.14978266188507,47.211926133311316 zM300.1046331194368,47.223414827244056 C300.10280004284095,47.22342130121039 300.1010084400922,47.22343859883922 300.09921815236737,47.2234879965512 C300.0862412217024,47.22419915501048 300.0732694162609,47.22517783664162 300.0602886753971,47.225756447383716 C300.0521332648865,47.22586151446254 300.04380858713097,47.225740498497885 300.03592107069625,47.228098067523376 C300.0252226727178,47.23492658468184 300.01807059211626,47.24624783217252 300.01389511985354,47.2580269104707 C300.0133331660874,47.25972447211476 300.01285635172235,47.261468632829036 300.01250476814363,47.26322236961855 C300.0255274886331,47.26912055758206 300.04005921649684,47.26848853661762 300.0539954406123,47.26797884664218 C300.06243988674555,47.26775306706586 300.07088672689724,47.26880700855579 300.07931431374294,47.269222826019174 C300.0853418461591,47.2694897422566 300.0913553516485,47.27031284638401 300.0973887510965,47.27010099257906 C300.10478701101204,47.26985558879228 300.1116381533339,47.26566093066053 300.11553625660093,47.25941729589908 C300.11890565261666,47.254081162857545 300.122093507826,47.248562173985285 300.1241710778072,47.24258680420426 C300.1258491838331,47.23722393233295 300.1261591249721,47.22977081229645 300.1205854782904,47.226561309762154 C300.1157348252877,47.22388250387533 300.11013228178706,47.22339493328494 300.1046330519996,47.223414793525464 L300.1046331194368,47.223414827244056 zM300.1131947713358,47.27727215789377 C300.1108530500402,47.27961377803345 300.1085115310562,47.27961377803345 300.1061698434793,47.28195539817314 C300.10382822334,47.29366356630866 300.1342694200297,47.321763142859105 300.1389526265906,47.29600518644834 C300.12724445845504,47.29132194616901 300.12021949688034,47.286638638452516 300.1131947713358,47.27727219161235 L300.1131947713358,47.27727215789377 z" style="color: rgb(255, 255, 255);"/><path fill="#b6b6b6" fill-opacity="1" stroke="#000000" stroke-opacity="1" stroke-width="1" stroke-dasharray="none" stroke-linejoin="miter" stroke-linecap="butt" stroke-dashoffset="" fill-rule="nonzero" opacity="1" marker-start="" marker-mid="" marker-end="" id="svg_4" d="M31.585370326075207,15.597558748856843 " style="color: rgb(255, 255, 255);"/><g class="selected" id="svg_3"><polyline fill="none" stroke="#000000" stroke-dashoffset="" fill-rule="nonzero" marker-start="" marker-mid="" marker-end="" id="svg_1" points="18.97029936313629,5.059401154518127 18.97029936313629,4.977768063545227 18.88866674900055,4.977768063545227 18.807034134864807,4.977768063545227 18.725401520729065,4.977768063545227 18.643768906593323,5.059401154518127 18.56213629245758,5.059401154518127 18.48050367832184,5.059401154518127 18.317238450050354,5.059401154518127 18.235605835914612,5.141033291816711 18.15397322177887,5.222666382789612 17.909075379371643,5.222666382789612 17.8274427652359,5.304298996925354 17.74581015110016,5.304298996925354 17.500912308692932,5.304298996925354 17.41927969455719,5.385931611061096 17.25601351261139,5.467564225196838 17.092748284339905,5.467564225196838 16.847850441932678,5.549196839332581 16.60295259952545,5.630829453468323 16.439687371253967,5.712462067604065 16.19478952884674,5.794094681739807 15.949891686439514,5.794094681739807 15.78662645816803,5.875727295875549 15.623360276222229,5.95736038684845 15.460095047950745,6.038992524147034 15.215197205543518,6.038992524147034 14.970299363136292,6.120625615119934 14.725401520729065,6.202258229255676 14.480503678321838,6.365523457527161 14.317238450050354,6.365523457527161 13.990707993507385,6.528788685798645 13.745810151100159,6.692053914070129 13.500911355018616,6.773686528205872 13.092748284339905,6.936951756477356 12.684585213661194,7.181850075721741 12.439687371253967,7.426747918128967 12.113156914710999,7.590013146400452 11.868259072303772,7.753278374671936 11.541727662086487,7.998176217079163 11.378462433815002,8.161441922187805 11.051931977272034,8.406339764595032 10.88866674900055,8.487972378730774 10.643768906593323,8.732870221138 10.398871064186096,8.814502835273743 10.15397322177887,9.05940067768097 9.8274427652359,9.304298520088196 9.664177536964417,9.46756374835968 9.337646126747131,9.794095158576965 9.174380898475647,9.95736038684845 8.92948305606842,10.120625615119934 8.766217827796936,10.447156071662903 8.52131998538971,10.610421299934387 8.276422142982483,10.936951756477356 8.113156914710999,11.263482213020325 7.868258595466614,11.508380055427551 7.623360753059387,11.834911465644836 7.460095524787903,12.079809308052063 7.2968302965164185,12.406339764595032 7.133565068244934,12.651237607002258 7.133565068244934,12.896135449409485 6.888666749000549,13.222665905952454 6.807034134864807,13.46756374835968 6.643768906593323,13.712462544441223 6.562136292457581,14.038993000984192 6.480503678321838,14.283890843391418 6.317238450050354,14.528788685798645 6.235605835914612,14.855319142341614 6.15397322177887,15.018584370613098 5.990707516670227,15.181849598884583 5.990707516670227,15.345114827156067 5.827442288398743,15.59001362323761 5.7458096742630005,15.753278851509094 5.7458096742630005,15.916544079780579 5.582544445991516,16.079809308052063 5.500911831855774,16.32470715045929 5.500911831855774,16.40633976459503 5.419279217720032,16.569604992866516 5.3376466035842896,16.814502835273743 5.256013989448547,16.977768063545227 5.256013989448547,17.14103329181671 5.174381136894226,17.304298520088196 5.092748522758484,17.549196362495422 5.011115670204163,17.712461590766907 5.011115670204163,17.87572681903839 4.9294832944869995,18.038992047309875 4.847850441932678,18.283889889717102 4.847850441932678,18.447155117988586 4.766217827796936,18.610422253608704 4.766217827796936,18.773687481880188 4.684585213661194,19.018585324287415 4.602952599525452,19.1818505525589 4.5213199853897095,19.345115780830383 4.5213199853897095,19.508381009101868 4.5213199853897095,19.671646237373352 4.439687371253967,19.91654407978058 4.358054518699646,20.079809308052063 4.276421904563904,20.243074536323547 4.276421904563904,20.32470715045929 4.276421904563904,20.40633976459503 4.194789290428162,20.487972378730774 4.194789290428162,20.569604992866516 4.194789290428162,20.65123760700226 4.194789290428162,20.732870221138 4.194789290428162,20.814502835273743 4.113156676292419,20.814502835273743 4.113156676292419,20.896135449409485 4.113156676292419,20.977768063545227 4.031523823738098,20.977768063545227 4.031523823738098,21.05940067768097 4.031523823738098,21.14103329181671 3.949891448020935,21.222665905952454 3.949891448020935,21.304298520088196 3.949891448020935,21.385931134223938 3.8682585954666138,21.385931134223938 " style="color: rgb(255, 255, 255);" class=""/><path fill="#000000" stroke="#000000" stroke-dashoffset="" fill-rule="nonzero" marker-start="" marker-mid="" marker-end="" id="svg_2" d="M16.77060576651592,7.355807102585311 L16.77060576651592,2.844849958021004 L21.489065137519955,7.355807102585311 L16.77060576651592,7.355807102585311 z" style="color: rgb(255, 255, 255);" class="" transform="rotate(179.94818115234375 19.129835128784176,5.10032844543457) " fill-opacity="1"/></g><path fill="" fill-opacity="1" stroke="#000000" stroke-opacity="1" stroke-width="1" stroke-dasharray="none" stroke-linejoin="miter" stroke-linecap="butt" stroke-dashoffset="" fill-rule="nonzero" opacity="1" marker-start="" marker-mid="" marker-end="" d="M4.0315240353954,21.059400908801017L3.9498913823341795,21.957360092474488" id="svg_5"/></g><defs><filter id="f117" inkscape:label="Diffuse light" inkscape:menu="ABCs" inkscape:menu-tooltip="Basic diffuse bevel to use for building textures" color-interpolation-filters="sRGB">
            <feGaussianBlur stdDeviation="6" in="SourceGraphic" result="result0"/>
            <feDiffuseLighting diffuseConstant="1" surfaceScale="10" result="result5">
                <feDistantLight elevation="25" azimuth="235"/>
            </feDiffuseLighting>
            <feComposite k1="1" in2="SourceGraphic" in="result5" result="result4" operator="arithmetic" k2="0" k3=".6"/>
        </filter></defs></svg>