<?xml version="1.0" encoding="UTF-8" standalone="no"?><!DOCTYPE svg PUBLIC "-//W3C//DTD SVG 1.1//EN" "http://www.w3.org/Graphics/SVG/1.1/DTD/svg11.dtd"><svg width="100%" height="100%" viewBox="0 0 43 43" version="1.1" xmlns="http://www.w3.org/2000/svg" xmlns:xlink="http://www.w3.org/1999/xlink" xml:space="preserve" style="fill-rule:evenodd;clip-rule:evenodd;stroke-linecap:round;stroke-linejoin:round;stroke-miterlimit:1.5;"><g><ellipse cx="21.18" cy="21.15" rx="20.415" ry="20.385" style="fill:#b3b3b3;"/><path d="M21.317,0l0.137,0.002l0.136,0.002l0.136,0.003l0.136,0.004l0.136,0.005l0.135,0.005l0.136,0.007l0.135,0.007l0.135,0.008l0.134,0.009l0.135,0.01l0.134,0.01l0.134,0.012l0.134,0.012l0.134,0.013l0.133,0.014l0.133,0.015l0.133,0.016l0.132,0.016l0.133,0.017l0.132,0.018l0.131,0.019l0.132,0.02l0.131,0.02l0.131,0.022l0.131,0.022l0.13,0.023l0.131,0.023l0.13,0.025l0.129,0.025l0.13,0.026l0.129,0.027l0.129,0.027l0.128,0.029l0.128,0.029l0.128,0.03l0.128,0.031l0.127,0.031l0.127,0.032l0.127,0.033l0.126,0.034l0.126,0.035l0.126,0.035l0.126,0.036l0.125,0.037l0.125,0.037l0.124,0.039l0.124,0.039l0.124,0.039l0.124,0.041l0.123,0.041l0.123,0.042l0.122,0.043l0.123,0.043l0.121,0.044l0.122,0.045l0.121,0.046l0.121,0.046l0.12,0.047l0.12,0.048l0.12,0.048l0.119,0.049l0.119,0.05l0.119,0.051l0.118,0.051l0.118,0.052l0.117,0.053l0.118,0.053l0.116,0.054l0.117,0.055l0.116,0.055l0.115,0.056l0.115,0.057l0.115,0.057l0.115,0.059l0.227,0.118l0.226,0.12l0.224,0.124l0.223,0.126l0.221,0.129l0.219,0.131l0.217,0.134l0.216,0.136l0.214,0.139l0.212,0.141l0.21,0.144l0.209,0.146l0.207,0.149l0.204,0.151l0.203,0.153l0.201,0.156l0.199,0.158l0.198,0.161l0.195,0.163l0.193,0.165l0.191,0.167l0.189,0.17l0.187,0.172l0.185,0.174l0.183,0.176l0.181,0.178l0.178,0.181l0.177,0.182l0.174,0.185l0.172,0.187l0.17,0.188l0.167,0.191l0.166,0.193l0.163,0.195l0.16,0.197l0.159,0.198l0.156,0.201l0.154,0.203l0.151,0.204l0.149,0.207l0.146,0.208l0.144,0.21l0.142,0.212l0.139,0.213l0.136,0.216l0.134,0.217l0.132,0.219l0.129,0.221l0.126,0.222l0.124,0.224l0.12,0.224l0.06,0.115l0.059,0.114l0.058,0.114l0.058,0.114l0.057,0.115l0.056,0.116l0.055,0.116l0.055,0.116l0.054,0.116l0.054,0.117l0.052,0.118l0.052,0.117l0.052,0.118l0.05,0.119l0.05,0.119l0.049,0.119l0.049,0.119l0.048,0.12l0.047,0.12l0.046,0.121l0.046,0.121l0.045,0.121l0.044,0.122l0.044,0.122l0.042,0.122l0.042,0.123l0.042,0.123l0.04,0.123l0.04,0.124l0.039,0.124l0.038,0.124l0.038,0.125l0.037,0.125l0.036,0.125l0.035,0.126l0.035,0.126l0.034,0.126l0.033,0.127l0.032,0.127l0.032,0.127l0.03,0.127l0.03,0.128l0.03,0.128l0.028,0.128l0.028,0.129l0.027,0.129l0.026,0.129l0.025,0.13l0.025,0.129l0.023,0.13l0.023,0.131l0.022,0.13l0.022,0.131l0.02,0.131l0.02,0.132l0.019,0.131l0.018,0.132l0.017,0.132l0.016,0.133l0.016,0.132l0.015,0.133l0.014,0.133l0.013,0.134l0.012,0.133l0.012,0.134l0.011,0.134l0.009,0.134l0.009,0.135l0.008,0.135l0.008,0.135l0.006,0.135l0.006,0.135l0.004,0.136l0.004,0.136l0.003,0.136l0.003,0.136l0.001,0.136l0,0.137l0,0.136l-0.001,0.137l-0.003,0.136l-0.003,0.136l-0.004,0.136l-0.004,0.135l-0.006,0.136l-0.006,0.135l-0.008,0.135l-0.008,0.135l-0.009,0.134l-0.009,0.134l-0.011,0.134l-0.012,0.134l-0.012,0.134l-0.013,0.133l-0.014,0.133l-0.015,0.133l-0.016,0.133l-0.016,0.132l-0.017,0.132l-0.018,0.132l-0.019,0.132l-0.02,0.131l-0.02,0.131l-0.022,0.131l-0.022,0.131l-0.023,0.13l-0.023,0.13l-0.025,0.13l-0.025,0.129l-0.026,0.13l-0.027,0.129l-0.028,0.128l-0.028,0.128l-0.03,0.129l-0.03,0.127l-0.03,0.128l-0.032,0.127l-0.032,0.127l-0.033,0.126l-0.034,0.127l-0.035,0.126l-0.035,0.125l-0.036,0.125l-0.037,0.125l-0.038,0.125l-0.038,0.124l-0.039,0.124l-0.04,0.124l-0.04,0.124l-0.042,0.123l-0.042,0.122l-0.042,0.123l-0.044,0.122l-0.044,0.121l-0.045,0.122l-0.046,0.121l-0.046,0.12l-0.047,0.12l-0.048,0.12l-0.049,0.12l-0.049,0.119l-0.05,0.119l-0.05,0.118l-0.052,0.118l-0.052,0.118l-0.052,0.117l-0.054,0.117l-0.054,0.117l-0.055,0.116l-0.055,0.116l-0.056,0.115l-0.057,0.115l-0.058,0.115l-0.058,0.114l-0.059,0.114l-0.06,0.114l-0.12,0.225l-0.124,0.224l-0.126,0.222l-0.129,0.221l-0.132,0.218l-0.134,0.218l-0.136,0.215l-0.139,0.214l-0.142,0.212l-0.144,0.21l-0.146,0.208l-0.149,0.206l-0.151,0.205l-0.154,0.202l-0.156,0.201l-0.159,0.199l-0.16,0.197l-0.163,0.195l-0.166,0.192l-0.167,0.191l-0.17,0.189l-0.172,0.187l-0.174,0.184l-0.177,0.183l-0.178,0.18l-0.181,0.179l-0.183,0.176l-0.185,0.174l-0.187,0.172l-0.189,0.169l-0.191,0.168l-0.193,0.165l-0.196,0.163l-0.197,0.16l-0.199,0.158l-0.201,0.156l-0.203,0.153l-0.204,0.152l-0.207,0.148l-0.209,0.146l-0.21,0.144l-0.212,0.142l-0.214,0.138l-0.216,0.137l-0.217,0.134l-0.219,0.131l-0.221,0.129l-0.223,0.126l-0.224,0.123l-0.226,0.121l-0.227,0.118l-0.115,0.058l-0.115,0.058l-0.115,0.056l-0.115,0.056l-0.116,0.056l-0.117,0.054l-0.116,0.054l-0.118,0.054l-0.117,0.052l-0.118,0.052l-0.118,0.052l-0.119,0.05l-0.119,0.05l-0.119,0.049l-0.12,0.049l-0.12,0.047l-0.12,0.047l-0.121,0.047l-0.121,0.045l-0.122,0.045l-0.121,0.044l-0.123,0.044l-0.122,0.042l-0.123,0.042l-0.123,0.042l-0.124,0.04l-0.124,0.04l-0.124,0.039l-0.124,0.038l-0.125,0.038l-0.125,0.037l-0.126,0.036l-0.126,0.035l-0.126,0.034l-0.126,0.034l-0.127,0.033l-0.127,0.032l-0.127,0.032l-0.128,0.031l-0.128,0.03l-0.128,0.029l-0.128,0.028l-0.129,0.028l-0.129,0.027l-0.13,0.026l-0.129,0.025l-0.13,0.024l-0.131,0.024l-0.13,0.023l-0.131,0.022l-0.131,0.021l-0.131,0.021l-0.132,0.019l-0.131,0.019l-0.132,0.018l-0.133,0.018l-0.132,0.016l-0.133,0.016l-0.133,0.014l-0.133,0.014l-0.134,0.013l-0.134,0.013l-0.134,0.011l-0.134,0.011l-0.134,0.01l-0.135,0.009l-0.135,0.008l-0.135,0.007l-0.136,0.006l-0.135,0.006l-0.136,0.005l-0.136,0.004l-0.136,0.003l-0.136,0.002l-0.137,0.001l-0.137,0.001l-0.137,-0.001l-0.136,-0.001l-0.137,-0.002l-0.136,-0.003l-0.136,-0.004l-0.136,-0.005l-0.135,-0.006l-0.135,-0.006l-0.136,-0.007l-0.135,-0.008l-0.134,-0.009l-0.135,-0.01l-0.134,-0.011l-0.134,-0.011l-0.134,-0.013l-0.133,-0.013l-0.134,-0.014l-0.133,-0.014l-0.132,-0.016l-0.133,-0.016l-0.132,-0.018l-0.132,-0.018l-0.132,-0.019l-0.132,-0.019l-0.131,-0.021l-0.131,-0.021l-0.131,-0.022l-0.13,-0.023l-0.13,-0.024l-0.13,-0.024l-0.13,-0.025l-0.129,-0.026l-0.129,-0.027l-0.129,-0.028l-0.129,-0.028l-0.128,-0.029l-0.128,-0.03l-0.128,-0.031l-0.127,-0.032l-0.127,-0.032l-0.127,-0.033l-0.126,-0.034l-0.126,-0.034l-0.126,-0.035l-0.125,-0.036l-0.126,-0.037l-0.124,-0.038l-0.125,-0.038l-0.124,-0.039l-0.124,-0.04l-0.124,-0.04l-0.123,-0.042l-0.123,-0.042l-0.122,-0.042l-0.122,-0.044l-0.122,-0.044l-0.122,-0.045l-0.121,-0.045l-0.12,-0.047l-0.121,-0.047l-0.12,-0.047l-0.12,-0.049l-0.119,-0.049l-0.119,-0.05l-0.119,-0.05l-0.118,-0.052l-0.118,-0.052l-0.117,-0.052l-0.117,-0.054l-0.117,-0.054l-0.116,-0.054l-0.116,-0.056l-0.116,-0.056l-0.115,-0.056l-0.115,-0.058l-0.115,-0.058l-0.227,-0.118l-0.225,-0.121l-0.225,-0.123l-0.222,-0.126l-0.221,-0.129l-0.219,-0.131l-0.218,-0.134l-0.216,-0.137l-0.214,-0.138l-0.212,-0.142l-0.21,-0.144l-0.209,-0.146l-0.206,-0.148l-0.205,-0.151l-0.203,-0.154l-0.201,-0.156l-0.199,-0.158l-0.197,-0.16l-0.195,-0.163l-0.193,-0.165l-0.192,-0.168l-0.189,-0.169l-0.187,-0.172l-0.185,-0.174l-0.183,-0.176l-0.18,-0.179l-0.179,-0.18l-0.176,-0.183l-0.175,-0.184l-0.172,-0.187l-0.169,-0.189l-0.168,-0.191l-0.165,-0.192l-0.163,-0.195l-0.161,-0.197l-0.159,-0.199l-0.156,-0.201l-0.153,-0.202l-0.152,-0.205l-0.148,-0.206l-0.147,-0.208l-0.144,-0.21l-0.142,-0.212l-0.139,-0.214l-0.136,-0.215l-0.134,-0.218l-0.132,-0.218l-0.128,-0.221l-0.127,-0.222l-0.123,-0.224l-0.121,-0.225l-0.06,-0.114l-0.059,-0.114l-0.058,-0.114l-0.057,-0.115l-0.057,-0.115l-0.056,-0.115l-0.056,-0.116l-0.055,-0.116l-0.054,-0.117l-0.053,-0.117l-0.053,-0.117l-0.052,-0.118l-0.051,-0.118l-0.051,-0.118l-0.05,-0.119l-0.049,-0.119l-0.049,-0.12l-0.047,-0.12l-0.048,-0.12l-0.046,-0.12l-0.046,-0.121l-0.045,-0.122l-0.044,-0.121l-0.043,-0.122l-0.043,-0.123l-0.042,-0.122l-0.041,-0.123l-0.041,-0.124l-0.04,-0.124l-0.039,-0.124l-0.038,-0.124l-0.038,-0.125l-0.037,-0.125l-0.036,-0.125l-0.035,-0.125l-0.035,-0.126l-0.034,-0.127l-0.033,-0.126l-0.032,-0.127l-0.031,-0.127l-0.031,-0.128l-0.03,-0.127l-0.029,-0.129l-0.029,-0.128l-0.027,-0.128l-0.027,-0.129l-0.026,-0.13l-0.026,-0.129l-0.024,-0.13l-0.024,-0.13l-0.023,-0.13l-0.022,-0.131l-0.021,-0.131l-0.021,-0.131l-0.019,-0.131l-0.019,-0.132l-0.018,-0.132l-0.018,-0.132l-0.016,-0.132l-0.016,-0.133l-0.015,-0.133l-0.014,-0.133l-0.013,-0.133l-0.012,-0.134l-0.012,-0.134l-0.01,-0.134l-0.01,-0.134l-0.009,-0.134l-0.008,-0.135l-0.007,-0.135l-0.007,-0.135l-0.005,-0.136l-0.005,-0.135l-0.004,-0.136l-0.003,-0.136l-0.002,-0.136l-0.002,-0.137l0,-0.136l0,-0.137l0.002,-0.136l0.002,-0.136l0.003,-0.136l0.004,-0.136l0.005,-0.136l0.005,-0.135l0.007,-0.135l0.007,-0.135l0.008,-0.135l0.009,-0.135l0.01,-0.134l0.01,-0.134l0.012,-0.134l0.012,-0.133l0.013,-0.134l0.014,-0.133l0.015,-0.133l0.016,-0.132l0.016,-0.133l0.018,-0.132l0.018,-0.132l0.019,-0.131l0.019,-0.132l0.021,-0.131l0.021,-0.131l0.022,-0.13l0.023,-0.131l0.024,-0.13l0.024,-0.129l0.026,-0.13l0.026,-0.129l0.027,-0.129l0.027,-0.129l0.029,-0.128l0.029,-0.128l0.03,-0.128l0.031,-0.127l0.031,-0.127l0.032,-0.127l0.033,-0.127l0.034,-0.126l0.035,-0.126l0.035,-0.126l0.036,-0.125l0.037,-0.125l0.038,-0.125l0.038,-0.124l0.039,-0.124l0.04,-0.124l0.041,-0.123l0.041,-0.123l0.042,-0.123l0.043,-0.122l0.043,-0.122l0.044,-0.122l0.045,-0.121l0.046,-0.121l0.046,-0.121l0.048,-0.12l0.047,-0.12l0.049,-0.119l0.049,-0.119l0.05,-0.119l0.051,-0.119l0.051,-0.118l0.052,-0.117l0.053,-0.118l0.053,-0.117l0.054,-0.116l0.055,-0.116l0.056,-0.116l0.056,-0.116l0.057,-0.115l0.057,-0.114l0.058,-0.114l0.059,-0.114l0.06,-0.115l0.121,-0.224l0.123,-0.224l0.127,-0.222l0.128,-0.221l0.132,-0.219l0.134,-0.217l0.136,-0.216l0.139,-0.213l0.142,-0.212l0.144,-0.21l0.147,-0.208l0.148,-0.207l0.152,-0.204l0.153,-0.203l0.156,-0.201l0.159,-0.198l0.161,-0.197l0.163,-0.195l0.165,-0.193l0.168,-0.191l0.169,-0.188l0.172,-0.187l0.175,-0.185l0.176,-0.182l0.179,-0.181l0.18,-0.178l0.183,-0.176l0.185,-0.174l0.187,-0.172l0.189,-0.17l0.192,-0.167l0.193,-0.165l0.195,-0.163l0.197,-0.161l0.199,-0.158l0.201,-0.156l0.203,-0.153l0.205,-0.151l0.206,-0.149l0.209,-0.146l0.21,-0.144l0.212,-0.141l0.214,-0.139l0.216,-0.136l0.218,-0.134l0.219,-0.131l0.221,-0.129l0.222,-0.126l0.225,-0.124l0.225,-0.12l0.227,-0.118l0.115,-0.059l0.115,-0.057l0.115,-0.057l0.116,-0.056l0.116,-0.055l0.116,-0.055l0.117,-0.054l0.117,-0.053l0.117,-0.053l0.118,-0.052l0.118,-0.051l0.119,-0.051l0.119,-0.05l0.119,-0.049l0.12,-0.048l0.12,-0.048l0.121,-0.047l0.12,-0.046l0.121,-0.046l0.122,-0.045l0.122,-0.044l0.122,-0.043l0.122,-0.043l0.123,-0.042l0.123,-0.041l0.124,-0.041l0.124,-0.039l0.124,-0.039l0.125,-0.039l0.124,-0.037l0.126,-0.037l0.125,-0.036l0.126,-0.035l0.126,-0.035l0.126,-0.034l0.127,-0.033l0.127,-0.032l0.127,-0.031l0.128,-0.031l0.128,-0.03l0.128,-0.029l0.129,-0.029l0.129,-0.027l0.129,-0.027l0.129,-0.026l0.13,-0.025l0.13,-0.025l0.13,-0.023l0.13,-0.023l0.131,-0.022l0.131,-0.022l0.131,-0.02l0.132,-0.02l0.132,-0.019l0.132,-0.018l0.132,-0.017l0.133,-0.016l0.132,-0.016l0.133,-0.015l0.134,-0.014l0.133,-0.013l0.134,-0.012l0.134,-0.012l0.134,-0.01l0.135,-0.01l0.134,-0.009l0.135,-0.008l0.136,-0.007l0.135,-0.007l0.135,-0.005l0.136,-0.005l0.136,-0.004l0.136,-0.003l0.137,-0.002l0.136,-0.002l0.137,0l0.137,0Zm-0.264,1.53l-0.127,0.002l-0.127,0.002l-0.126,0.002l-0.126,0.004l-0.126,0.004l-0.126,0.006l-0.126,0.005l-0.125,0.007l-0.126,0.008l-0.125,0.008l-0.125,0.009l-0.124,0.01l-0.125,0.011l-0.124,0.011l-0.124,0.012l-0.123,0.013l-0.124,0.014l-0.123,0.014l-0.123,0.016l-0.123,0.016l-0.122,0.016l-0.123,0.018l-0.122,0.018l-0.121,0.019l-0.122,0.02l-0.121,0.02l-0.121,0.022l-0.121,0.022l-0.121,0.022l-0.12,0.024l-0.12,0.024l-0.119,0.025l-0.12,0.025l-0.119,0.027l-0.119,0.027l-0.119,0.027l-0.118,0.029l-0.118,0.029l-0.118,0.03l-0.117,0.031l-0.118,0.031l-0.117,0.032l-0.116,0.033l-0.117,0.033l-0.116,0.034l-0.115,0.035l-0.116,0.036l-0.115,0.036l-0.115,0.037l-0.114,0.037l-0.115,0.038l-0.114,0.039l-0.113,0.04l-0.113,0.04l-0.113,0.041l-0.113,0.042l-0.112,0.042l-0.112,0.043l-0.112,0.044l-0.111,0.044l-0.111,0.045l-0.111,0.045l-0.11,0.047l-0.11,0.046l-0.11,0.048l-0.109,0.048l-0.109,0.049l-0.109,0.049l-0.108,0.051l-0.108,0.05l-0.108,0.052l-0.107,0.052l-0.107,0.052l-0.106,0.054l-0.105,0.053l-0.212,0.11l-0.21,0.112l-0.208,0.115l-0.206,0.117l-0.205,0.119l-0.204,0.122l-0.201,0.124l-0.201,0.126l-0.198,0.129l-0.197,0.131l-0.195,0.134l-0.194,0.136l-0.191,0.138l-0.191,0.14l-0.188,0.142l-0.186,0.145l-0.185,0.147l-0.183,0.149l-0.181,0.151l-0.18,0.153l-0.177,0.155l-0.175,0.158l-0.174,0.159l-0.172,0.162l-0.169,0.163l-0.168,0.166l-0.166,0.167l-0.164,0.17l-0.162,0.171l-0.159,0.173l-0.158,0.176l-0.155,0.177l-0.154,0.179l-0.151,0.181l-0.149,0.182l-0.147,0.185l-0.145,0.186l-0.143,0.188l-0.14,0.19l-0.138,0.191l-0.136,0.194l-0.134,0.195l-0.131,0.196l-0.129,0.198l-0.127,0.2l-0.124,0.202l-0.122,0.203l-0.12,0.204l-0.117,0.207l-0.115,0.207l-0.112,0.21l-0.055,0.105l-0.055,0.105l-0.054,0.106l-0.053,0.106l-0.053,0.107l-0.052,0.107l-0.051,0.107l-0.051,0.108l-0.05,0.108l-0.05,0.109l-0.049,0.108l-0.048,0.11l-0.047,0.109l-0.047,0.11l-0.047,0.11l-0.045,0.11l-0.045,0.111l-0.045,0.111l-0.043,0.112l-0.043,0.112l-0.043,0.112l-0.041,0.112l-0.041,0.113l-0.041,0.113l-0.039,0.114l-0.039,0.113l-0.039,0.114l-0.037,0.115l-0.037,0.114l-0.036,0.115l-0.036,0.116l-0.035,0.115l-0.034,0.116l-0.033,0.116l-0.033,0.117l-0.032,0.117l-0.031,0.117l-0.031,0.117l-0.03,0.117l-0.029,0.118l-0.029,0.119l-0.028,0.118l-0.027,0.119l-0.026,0.119l-0.026,0.119l-0.025,0.119l-0.024,0.12l-0.023,0.12l-0.023,0.121l-0.022,0.12l-0.021,0.121l-0.021,0.121l-0.019,0.121l-0.019,0.122l-0.019,0.122l-0.017,0.122l-0.017,0.122l-0.016,0.123l-0.015,0.123l-0.015,0.123l-0.014,0.123l-0.013,0.123l-0.012,0.124l-0.011,0.124l-0.011,0.124l-0.01,0.125l-0.009,0.124l-0.008,0.125l-0.008,0.125l-0.006,0.125l-0.006,0.126l-0.006,0.125l-0.004,0.126l-0.004,0.126l-0.002,0.127l-0.002,0.126l-0.002,0.127l0,0.127l0,0.127l0.002,0.126l0.002,0.127l0.002,0.126l0.004,0.126l0.004,0.126l0.006,0.126l0.006,0.125l0.006,0.126l0.008,0.125l0.008,0.124l0.009,0.125l0.01,0.124l0.011,0.125l0.011,0.124l0.012,0.123l0.013,0.124l0.014,0.123l0.015,0.123l0.015,0.123l0.016,0.122l0.017,0.123l0.017,0.122l0.019,0.122l0.019,0.121l0.019,0.121l0.021,0.122l0.021,0.12l0.022,0.121l0.023,0.12l0.023,0.12l0.024,0.12l0.025,0.12l0.026,0.119l0.026,0.119l0.027,0.119l0.028,0.118l0.029,0.118l0.029,0.118l0.03,0.118l0.031,0.117l0.031,0.117l0.032,0.117l0.033,0.116l0.033,0.116l0.034,0.116l0.035,0.116l0.036,0.115l0.036,0.115l0.037,0.115l0.037,0.114l0.039,0.114l0.039,0.114l0.039,0.113l0.041,0.113l0.041,0.113l0.041,0.113l0.043,0.112l0.043,0.112l0.043,0.111l0.045,0.111l0.045,0.111l0.045,0.111l0.047,0.11l0.047,0.11l0.047,0.109l0.048,0.109l0.049,0.109l0.05,0.108l0.05,0.108l0.051,0.108l0.051,0.108l0.052,0.107l0.053,0.106l0.053,0.106l0.054,0.106l0.055,0.106l0.055,0.104l0.112,0.21l0.115,0.208l0.117,0.206l0.12,0.205l0.122,0.203l0.124,0.201l0.127,0.2l0.129,0.198l0.131,0.197l0.134,0.195l0.136,0.193l0.138,0.192l0.14,0.189l0.143,0.188l0.145,0.187l0.147,0.184l0.149,0.183l0.151,0.181l0.154,0.179l0.155,0.177l0.158,0.175l0.159,0.173l0.162,0.172l0.164,0.169l0.166,0.168l0.168,0.165l0.169,0.164l0.172,0.161l0.174,0.16l0.175,0.157l0.177,0.156l0.18,0.153l0.181,0.151l0.183,0.149l0.185,0.147l0.186,0.144l0.188,0.143l0.191,0.14l0.191,0.138l0.194,0.136l0.195,0.133l0.197,0.131l0.198,0.129l0.201,0.127l0.201,0.124l0.204,0.121l0.205,0.12l0.206,0.117l0.208,0.114l0.21,0.112l0.212,0.111l0.105,0.053l0.106,0.053l0.107,0.053l0.107,0.052l0.108,0.051l0.108,0.051l0.108,0.05l0.109,0.05l0.109,0.048l0.109,0.049l0.11,0.047l0.11,0.047l0.11,0.046l0.111,0.046l0.111,0.045l0.111,0.044l0.112,0.044l0.112,0.043l0.112,0.042l0.113,0.041l0.113,0.041l0.113,0.041l0.113,0.039l0.114,0.039l0.115,0.038l0.114,0.038l0.115,0.037l0.115,0.036l0.116,0.035l0.115,0.035l0.116,0.034l0.117,0.034l0.116,0.033l0.117,0.032l0.118,0.031l0.117,0.03l0.118,0.03l0.118,0.03l0.118,0.028l0.119,0.028l0.119,0.027l0.119,0.026l0.12,0.026l0.119,0.025l0.12,0.024l0.12,0.023l0.121,0.023l0.121,0.022l0.121,0.021l0.121,0.021l0.122,0.019l0.121,0.019l0.122,0.019l0.123,0.017l0.122,0.017l0.123,0.016l0.123,0.015l0.123,0.015l0.124,0.013l0.123,0.013l0.124,0.012l0.124,0.012l0.125,0.01l0.124,0.01l0.125,0.009l0.125,0.009l0.126,0.007l0.125,0.007l0.126,0.006l0.126,0.005l0.126,0.005l0.126,0.003l0.126,0.003l0.127,0.002l0.127,0.001l0.127,0.001l0.127,-0.001l0.127,-0.001l0.127,-0.002l0.126,-0.003l0.127,-0.003l0.126,-0.005l0.126,-0.005l0.125,-0.006l0.126,-0.007l0.125,-0.007l0.125,-0.009l0.125,-0.009l0.125,-0.01l0.124,-0.01l0.124,-0.012l0.124,-0.012l0.124,-0.013l0.123,-0.013l0.123,-0.015l0.123,-0.015l0.123,-0.016l0.123,-0.017l0.122,-0.017l0.122,-0.019l0.122,-0.019l0.121,-0.019l0.122,-0.021l0.121,-0.021l0.12,-0.022l0.121,-0.023l0.12,-0.023l0.12,-0.024l0.12,-0.025l0.119,-0.026l0.119,-0.026l0.119,-0.027l0.119,-0.028l0.118,-0.028l0.118,-0.03l0.118,-0.03l0.118,-0.03l0.117,-0.031l0.117,-0.032l0.117,-0.033l0.116,-0.034l0.116,-0.034l0.116,-0.035l0.115,-0.035l0.115,-0.036l0.115,-0.037l0.115,-0.038l0.114,-0.038l0.114,-0.039l0.113,-0.039l0.114,-0.041l0.113,-0.041l0.112,-0.041l0.113,-0.042l0.112,-0.043l0.111,-0.044l0.112,-0.044l0.111,-0.045l0.11,-0.046l0.111,-0.046l0.11,-0.047l0.109,-0.047l0.11,-0.049l0.109,-0.048l0.108,-0.05l0.108,-0.05l0.108,-0.051l0.108,-0.051l0.107,-0.052l0.107,-0.053l0.106,-0.053l0.105,-0.053l0.212,-0.111l0.21,-0.112l0.208,-0.114l0.207,-0.117l0.205,-0.12l0.203,-0.121l0.202,-0.124l0.2,-0.127l0.198,-0.129l0.197,-0.131l0.195,-0.133l0.194,-0.136l0.192,-0.138l0.19,-0.14l0.188,-0.143l0.187,-0.144l0.184,-0.147l0.183,-0.149l0.182,-0.151l0.179,-0.153l0.177,-0.156l0.176,-0.157l0.173,-0.16l0.172,-0.161l0.17,-0.164l0.168,-0.165l0.165,-0.168l0.164,-0.169l0.162,-0.172l0.16,-0.173l0.157,-0.175l0.156,-0.177l0.153,-0.179l0.151,-0.181l0.15,-0.183l0.147,-0.184l0.144,-0.187l0.143,-0.188l0.141,-0.189l0.138,-0.192l0.136,-0.193l0.133,-0.195l0.132,-0.197l0.129,-0.198l0.126,-0.2l0.125,-0.201l0.122,-0.203l0.119,-0.205l0.117,-0.206l0.115,-0.208l0.113,-0.21l0.054,-0.104l0.055,-0.106l0.054,-0.106l0.053,-0.106l0.053,-0.106l0.052,-0.107l0.051,-0.108l0.051,-0.108l0.05,-0.108l0.05,-0.108l0.049,-0.109l0.048,-0.109l0.048,-0.109l0.047,-0.11l0.046,-0.11l0.046,-0.111l0.045,-0.111l0.044,-0.111l0.044,-0.111l0.043,-0.112l0.042,-0.112l0.042,-0.113l0.041,-0.113l0.04,-0.113l0.04,-0.113l0.039,-0.114l0.038,-0.114l0.037,-0.114l0.037,-0.115l0.037,-0.115l0.035,-0.115l0.035,-0.116l0.034,-0.116l0.034,-0.116l0.032,-0.116l0.032,-0.117l0.032,-0.117l0.03,-0.117l0.03,-0.118l0.03,-0.118l0.028,-0.118l0.028,-0.118l0.027,-0.119l0.026,-0.119l0.026,-0.119l0.025,-0.12l0.024,-0.12l0.024,-0.12l0.022,-0.12l0.022,-0.121l0.022,-0.12l0.02,-0.122l0.02,-0.121l0.019,-0.121l0.018,-0.122l0.018,-0.122l0.016,-0.123l0.016,-0.122l0.016,-0.123l0.014,-0.123l0.014,-0.123l0.013,-0.124l0.012,-0.123l0.011,-0.124l0.011,-0.125l0.01,-0.124l0.009,-0.125l0.008,-0.124l0.008,-0.125l0.007,-0.126l0.006,-0.125l0.005,-0.126l0.004,-0.126l0.004,-0.126l0.003,-0.126l0.002,-0.127l0.001,-0.126l0,-0.127l0,-0.127l-0.001,-0.127l-0.002,-0.126l-0.003,-0.127l-0.004,-0.126l-0.004,-0.126l-0.005,-0.125l-0.006,-0.126l-0.007,-0.125l-0.008,-0.125l-0.008,-0.125l-0.009,-0.124l-0.01,-0.125l-0.011,-0.124l-0.011,-0.124l-0.012,-0.124l-0.013,-0.123l-0.014,-0.123l-0.014,-0.123l-0.016,-0.123l-0.016,-0.123l-0.016,-0.122l-0.018,-0.122l-0.018,-0.122l-0.019,-0.122l-0.02,-0.121l-0.02,-0.121l-0.022,-0.121l-0.022,-0.12l-0.022,-0.121l-0.024,-0.12l-0.024,-0.12l-0.025,-0.119l-0.026,-0.119l-0.026,-0.119l-0.027,-0.119l-0.028,-0.119l-0.028,-0.118l-0.03,-0.118l-0.03,-0.117l-0.03,-0.117l-0.032,-0.118l-0.032,-0.116l-0.032,-0.117l-0.034,-0.116l-0.034,-0.116l-0.035,-0.115l-0.035,-0.116l-0.037,-0.115l-0.037,-0.114l-0.037,-0.115l-0.038,-0.114l-0.039,-0.113l-0.04,-0.114l-0.04,-0.113l-0.041,-0.113l-0.042,-0.112l-0.042,-0.112l-0.043,-0.112l-0.044,-0.112l-0.044,-0.111l-0.045,-0.111l-0.046,-0.11l-0.046,-0.11l-0.047,-0.11l-0.048,-0.109l-0.048,-0.11l-0.049,-0.108l-0.05,-0.109l-0.05,-0.108l-0.051,-0.108l-0.051,-0.107l-0.052,-0.107l-0.053,-0.107l-0.053,-0.106l-0.054,-0.106l-0.055,-0.105l-0.054,-0.105l-0.113,-0.21l-0.115,-0.207l-0.117,-0.207l-0.119,-0.204l-0.122,-0.203l-0.125,-0.202l-0.126,-0.2l-0.129,-0.198l-0.132,-0.196l-0.133,-0.195l-0.136,-0.194l-0.138,-0.191l-0.141,-0.19l-0.143,-0.188l-0.144,-0.186l-0.147,-0.185l-0.15,-0.182l-0.151,-0.181l-0.153,-0.179l-0.156,-0.177l-0.157,-0.176l-0.16,-0.173l-0.162,-0.171l-0.164,-0.17l-0.165,-0.167l-0.168,-0.166l-0.17,-0.163l-0.172,-0.162l-0.173,-0.159l-0.176,-0.158l-0.177,-0.155l-0.179,-0.153l-0.182,-0.151l-0.183,-0.149l-0.184,-0.147l-0.187,-0.145l-0.188,-0.142l-0.19,-0.14l-0.192,-0.138l-0.194,-0.136l-0.195,-0.134l-0.197,-0.131l-0.198,-0.129l-0.2,-0.126l-0.202,-0.124l-0.203,-0.122l-0.205,-0.119l-0.207,-0.117l-0.208,-0.115l-0.21,-0.112l-0.212,-0.11l-0.105,-0.053l-0.106,-0.054l-0.107,-0.052l-0.107,-0.052l-0.108,-0.052l-0.108,-0.05l-0.108,-0.051l-0.108,-0.049l-0.109,-0.049l-0.11,-0.048l-0.109,-0.048l-0.11,-0.046l-0.111,-0.047l-0.11,-0.045l-0.111,-0.045l-0.112,-0.044l-0.111,-0.044l-0.112,-0.043l-0.113,-0.042l-0.112,-0.042l-0.113,-0.041l-0.114,-0.04l-0.113,-0.04l-0.114,-0.039l-0.114,-0.038l-0.115,-0.037l-0.115,-0.037l-0.115,-0.036l-0.115,-0.036l-0.116,-0.035l-0.116,-0.034l-0.116,-0.033l-0.117,-0.033l-0.117,-0.032l-0.117,-0.031l-0.118,-0.031l-0.118,-0.03l-0.118,-0.029l-0.118,-0.029l-0.119,-0.027l-0.119,-0.027l-0.119,-0.027l-0.119,-0.025l-0.12,-0.025l-0.12,-0.024l-0.12,-0.024l-0.121,-0.022l-0.12,-0.022l-0.121,-0.022l-0.122,-0.02l-0.121,-0.02l-0.122,-0.019l-0.122,-0.018l-0.122,-0.018l-0.123,-0.016l-0.123,-0.016l-0.123,-0.016l-0.123,-0.014l-0.123,-0.014l-0.124,-0.013l-0.124,-0.012l-0.124,-0.011l-0.124,-0.011l-0.125,-0.01l-0.125,-0.009l-0.125,-0.008l-0.125,-0.008l-0.126,-0.007l-0.125,-0.005l-0.126,-0.006l-0.126,-0.004l-0.127,-0.004l-0.126,-0.002l-0.127,-0.002l-0.127,-0.002l-0.127,0l-0.127,0Z"/><g><path d="M14.18,21.15l14,0" style="fill:none;stroke:#000;stroke-width:1px;"/><path d="M21.18,28.15l0,-14" style="fill:none;stroke:#000;stroke-width:1px;"/></g></g></svg>