<?xml version="1.0" encoding="UTF-8" standalone="no"?>
<!DOCTYPE svg PUBLIC "-//W3C//DTD SVG 1.1//EN" "http://www.w3.org/Graphics/SVG/1.1/DTD/svg11.dtd">
<svg width="100%" height="100%" viewBox="0 0 48 48" version="1.1" xmlns="http://www.w3.org/2000/svg" xmlns:xlink="http://www.w3.org/1999/xlink" xml:space="preserve" style="fill-rule:evenodd;clip-rule:evenodd;stroke-linecap:round;stroke-linejoin:round;stroke-miterlimit:1.5;">
    <rect id="Mesa-de-trabajo1" x="0" y="0" width="48" height="48" style="fill:none;"/>
    <clipPath id="_clip1">
        <rect id="Mesa-de-trabajo11" x="0" y="0" width="48" height="48"/>
    </clipPath>
    <g clip-path="url(#_clip1)">
        <g transform="matrix(1.05513,0,0,1.12079,-3.96095,1.57136)">
            <g transform="matrix(1.13889,0,0,1.44444,-1.82727,-17.4451)">
                <ellipse cx="24.873" cy="25.92" rx="15.796" ry="6.895" style="fill:none;stroke:black;stroke-width:0.7px;"/>
            </g>
            <g transform="matrix(1.42361,0,0,1.44444,-5.38889,4.10601)">
                <path d="M10,11C12.102,11.052 8,11 8,11L12,11" style="fill:none;stroke:black;stroke-width:0.64px;"/>
            </g>
            <g transform="matrix(1.42361,0,0,1.44444,29.9167,4.10601)">
                <path d="M10,11C12.102,11.052 8,11 8,11L12,11" style="fill:none;stroke:black;stroke-width:0.64px;"/>
            </g>
            <g transform="matrix(-6.97368e-17,1.44444,-1.13889,-8.84467e-17,39.0409,-4.54407)">
                <path d="M10,11C12.102,11.052 8,11 8,11L12,11" style="fill:none;stroke:black;stroke-width:0.7px;"/>
            </g>
            <g transform="matrix(-6.97368e-17,1.44444,-1.13889,-8.84467e-17,39.0409,15.6782)">
                <path d="M10,11C12.102,11.052 8,11 8,11L12,11" style="fill:none;stroke:black;stroke-width:0.7px;"/>
            </g>
        </g>
    </g>
</svg>
